{"title":"Arthur.Christmas.2011.TS.x264.Feel-Free ","uid":6901544,"size":1338200125,"categoryP":"video","categoryS":"movies","magnet":"?xt=urn:btih:13b3dd5a24c9ef2085a4b7efc7aa46d71202c8e2&amp;dn=Arthur.Christmas.2011.TS.x264.Feel-Free+&amp;tr=udp%3A%2F%2Ftracker.openbittorrent.com%3A80&amp;tr=udp%3A%2F%2Fopen.demonii.com%3A1337&amp;tr=udp%3A%2F%2Ftracker.coppersurfer.tk%3A6969&amp;tr=udp%3A%2F%2Fexodus.desync.com%3A6969","seeders":1,"leechers":0,"uploader":"HeroMaster","files":-1,"time":1324411573,"description":"::::::: Feel-Free Presents :::::::\n\n\n::::: Arthur Christmas 2011 TS x264 :::::\n\n\n::Information::\n\n\nGenre:Animation | Comedy | Drama\nLanguage:English\nIMDb:http://www.imdb.com/title/tt1430607/\nSource:iLLUMiNATi 720p Thanks!\n\n\n::Details::\n\n\nFormat : MPEG-4\nFormat profile : Base Media\nCodec ID : isom\nFile size : 1.24 GiB\nDuration : 1h 31mn\nOverall bit rate : 1 950 Kbps\n\n\nVideo\nID : 1\nFormat : AVC\nFormat/Info : Advanced Video Codec\nFormat profile : &lt;a class=&quot;__cf_email__&quot; href=&quot;/cdn-cgi/l/email-protection&quot; data-cfemail=&quot;db93b2bcb39b97eef5ea&quot;&gt;[email&amp;#160;protected]&lt;/a&gt;&lt;script cf-hash='f9e31' type=&quot;text/javascript&quot;&gt;\n/* &lt;![CDATA[ */!function(){try{var t=&quot;currentScript&quot;in document?document.currentScript:function(){for(var t=document.getElementsByTagName(&quot;script&quot;),e=t.length;e--;)if(t[e].getAttribute(&quot;cf-hash&quot;))return t[e]}();if(t&amp;&amp;t.previousSibling){var e,r,n,i,c=t.previousSibling,a=c.getAttribute(&quot;data-cfemail&quot;);if(a){for(e=&quot;&quot;,r=parseInt(a.substr(0,2),16),n=2;a.length-n;n+=2)i=parseInt(a.substr(n,2),16)^r,e+=String.fromCharCode(i);e=document.createTextNode(e),c.parentNode.replaceChild(e,c)}}}catch(u){}}();/* ]]&gt; */&lt;/script&gt;\nFormat settings, CABAC : Yes\nFormat settings, ReFrames : 3 frames\nCodec ID : avc1\nCodec ID/Info : Advanced Video Coding\nDuration : 1h 31mn\nBit rate mode : Variable\nBit rate : 1 500 Kbps\nMaximum bit rate : 8 366 Kbps\nWidth : 624 pixels\nHeight : 264 pixels\nDisplay aspect ratio : 2.35:1\nFrame rate mode : Constant\nFrame rate : 24.000 fps\nColor space : YUV\nChroma subsampling : 4:2:0\nBit depth : 8 bits\nScan type : Progressive\nBits/(Pixel*Frame) : 0.379\nStream size : 982 MiB (77%)\nWriting library : x264\n\n\nAudio\nID : 2\nFormat : AAC\nFormat/Info : Advanced Audio Codec\nFormat version : Version 4\nFormat profile : LC\nFormat settings, SBR : No\nCodec ID : 40\nDuration : 1h 31mn\nBit rate mode : Variable\nBit rate : 444 Kbps\nMaximum bit rate : 473 Kbps\nChannel(s) : 6 channels\nChannel positions : Front: L C R, Side: L R, LFE\nSampling rate : 48.0 KHz\nStream size : 290 MiB (23%)\n\n\n::Plot::\n\n\nOn Christmas night at the North Pole, Santa's youngest son looks to use \nhis father's high-tech operation for an urgent mission.\n\n\n::Greets::\n\n\nCRYS,IMAGINE,LKRG,FXG,3Li,FLAWL3SS,TA,iLLUSiON,EMBER,ETRG,BHRG,iLLUMiNATi,\nMiSTERE.ViSiON,DTRG,SAFCuk009,LU,TheFalcon007,MYSTiC,PrisM,Noir,WBZ,LAP,Rx,\nKingdom,Fabreezy,HDLiTE,TWiZTED,ExtraTorrentRG.ELEKTRI4KA,MAGNAT,CM8\n\nAnd to all the other p2p grps past and present\n\n\n::Poster::\n\n &lt;a href=&quot;\nhttp://i.imgur.com/JXSNg.jpg&quot; rel=&quot;nofollow&quot; target=&quot;_NEW&quot;&gt;\nhttp://i.imgur.com/JXSNg.jpg&lt;/a&gt;\n\n\n::Screens::\n\n &lt;a href=&quot;\nhttp://i.imgur.com/ap0VC.png&quot; rel=&quot;nofollow&quot; target=&quot;_NEW&quot;&gt;\nhttp://i.imgur.com/ap0VC.png&lt;/a&gt;\n\n &lt;a href=&quot;\nhttp://i.imgur.com/BsaxF.png&quot; rel=&quot;nofollow&quot; target=&quot;_NEW&quot;&gt;\nhttp://i.imgur.com/BsaxF.png&lt;/a&gt;\n\n &lt;a href=&quot;\nhttp://i.imgur.com/izExj.png&quot; rel=&quot;nofollow&quot; target=&quot;_NEW&quot;&gt;\nhttp://i.imgur.com/izExj.png&lt;/a&gt;\n\n\nENJOY!","torrent":{"xt":"urn:btih:13b3dd5a24c9ef2085a4b7efc7aa46d71202c8e2","amp;dn":"Arthur.Christmas.2011.TS.x264.Feel-Free+","amp;tr":["udp%3A%2F%2Ftracker.openbittorrent.com%3A80","udp%3A%2F%2Fopen.demonii.com%3A1337","udp%3A%2F%2Ftracker.coppersurfer.tk%3A6969","udp%3A%2F%2Fexodus.desync.com%3A6969"],"infoHash":"13b3dd5a24c9ef2085a4b7efc7aa46d71202c8e2","infoHashBuffer":{"type":"Buffer","data":[19,179,221,90,36,201,239,32,133,164,183,239,199,170,70,215,18,2,200,226]},"announce":[],"urlList":[]}}